<?xml version="1.0" encoding="UTF-8"?>
<svg xmlns="http://www.w3.org/2000/svg" width="111" height="105" viewBox="0 0 111 105" fill="none">
  <path d="M4.88108 87.6676V93.1196C4.88108 94.1894 4.90307 95.0395 4.94704 95.6697C4.991 96.2999 5.07894 96.7689 5.21084 97.0766C5.3574 97.3844 5.56991 97.5896 5.84837 97.6922C6.14149 97.7801 6.53719 97.8241 7.03549 97.8241L7.07946 98.0879H1.14384L1.18781 97.8241C1.68611 97.8241 2.08182 97.7801 2.37493 97.6922C2.66805 97.5896 2.88056 97.3844 3.01246 97.0766C3.15902 96.7689 3.24696 96.2999 3.27627 95.6697C3.32024 95.0395 3.34222 94.1894 3.34222 93.1196V87.6676C3.34222 86.5977 3.32024 85.7477 3.27627 85.1175C3.24696 84.4873 3.15902 84.0183 3.01246 83.7105C2.88056 83.3881 2.66805 83.1829 2.37493 83.095C2.08182 82.9924 1.68611 82.9411 1.18781 82.9411L1.14384 82.6993H7.07946L7.03549 82.9411C6.53719 82.9411 6.14149 82.9924 5.84837 83.095C5.56991 83.1829 5.3574 83.3881 5.21084 83.7105C5.07894 84.0183 4.991 84.4873 4.94704 85.1175C4.90307 85.7477 4.88108 86.5977 4.88108 87.6676ZM18.5795 91.4048C18.6528 90.7893 18.814 90.1811 19.0632 89.5802C19.327 88.9646 19.6787 88.459 20.1184 88.0633C20.5727 87.6676 21.1297 87.4697 21.7892 87.4697C22.8444 87.4697 23.6431 87.7775 24.1854 88.393C24.7277 88.9939 24.9988 89.8586 24.9988 90.9871V94.4606C24.9988 95.4572 25.0354 96.1973 25.1087 96.6809C25.182 97.1646 25.3505 97.4797 25.6144 97.6262C25.8782 97.7581 26.2959 97.8241 26.8674 97.8241L26.9114 98.0879H21.7232L21.7672 97.8241C22.1776 97.8241 22.5 97.7874 22.7345 97.7142C22.969 97.6409 23.1375 97.487 23.2401 97.2525C23.3427 97.018 23.4013 96.6663 23.416 96.1973C23.4453 95.7136 23.4599 95.0688 23.4599 94.2627V91.207C23.4599 90.2543 23.3207 89.5069 23.0423 88.9646C22.7784 88.4224 22.2801 88.1512 21.5474 88.1512C21.0784 88.1512 20.6753 88.3051 20.3383 88.6129C20.0012 88.9207 19.7154 89.3237 19.4809 89.822C19.261 90.3056 19.0852 90.8332 18.9533 91.4048C18.8214 91.9764 18.7261 92.5333 18.6675 93.0756C18.6089 93.6032 18.5795 94.0649 18.5795 94.4606C18.5795 95.2227 18.5942 95.8309 18.6235 96.2852C18.6528 96.7249 18.7261 97.0547 18.8434 97.2745C18.9606 97.4943 19.1438 97.6409 19.3929 97.7142C19.6421 97.7874 19.9865 97.8241 20.4262 97.8241L20.4702 98.0879H15.304L15.3479 97.8241C15.7583 97.8241 16.0807 97.7874 16.3152 97.7142C16.5497 97.6409 16.7183 97.487 16.8208 97.2525C16.9234 97.018 16.9821 96.6663 16.9967 96.1973C17.026 95.7136 17.0407 95.0688 17.0407 94.2627V91.207C17.0407 90.2543 16.9015 89.5069 16.623 88.9646C16.3592 88.4224 15.8609 88.1512 15.1281 88.1512C14.6591 88.1512 14.2561 88.3051 13.919 88.6129C13.5819 88.9207 13.2961 89.3237 13.0616 89.822C12.8418 90.3056 12.6659 90.8332 12.534 91.4048C12.4021 91.9764 12.3068 92.5333 12.2482 93.0756C12.1896 93.6032 12.1603 94.0649 12.1603 94.4606C12.1603 95.2227 12.1749 95.8309 12.2043 96.2852C12.2336 96.7249 12.3068 97.0547 12.4241 97.2745C12.5413 97.4943 12.7245 97.6409 12.9737 97.7142C13.2228 97.7874 13.5672 97.8241 14.0069 97.8241L14.0509 98.0879H8.68685L8.73082 97.8241C9.18515 97.8241 9.53689 97.7874 9.78604 97.7142C10.0498 97.6409 10.2404 97.4943 10.3576 97.2745C10.4749 97.04 10.5481 96.6956 10.5775 96.2413C10.6068 95.7869 10.6214 95.1787 10.6214 94.4166V92.6579C10.6214 91.588 10.5994 90.738 10.5555 90.1078C10.5262 89.4776 10.4382 89.0086 10.2917 88.7008C10.1451 88.393 9.92527 88.1952 9.63215 88.1073C9.35369 88.0047 8.95799 87.9534 8.44503 87.9534L8.40106 87.7116C8.40106 87.7116 8.58426 87.6896 8.95066 87.6456C9.33171 87.6016 9.80802 87.565 10.3796 87.5357C10.9512 87.4917 11.5447 87.4697 12.1603 87.4697V91.4048C12.2336 90.7893 12.3948 90.1811 12.6439 89.5802C12.9077 88.9646 13.2595 88.459 13.6992 88.0633C14.1535 87.6676 14.7104 87.4697 15.3699 87.4697C16.4251 87.4697 17.2239 87.7775 17.7661 88.393C18.3084 89.0086 18.5795 90.0125 18.5795 91.4048ZM34.4814 87.4697C35.2288 87.4697 35.8663 87.6309 36.394 87.9534C36.9216 88.2758 37.3393 88.7081 37.647 89.2504C37.9695 89.778 38.204 90.3643 38.3505 91.0091C38.4971 91.6393 38.5704 92.2768 38.5704 92.9217C38.5704 93.933 38.3578 94.8489 37.9328 95.6697C37.5078 96.4757 36.9216 97.1206 36.1741 97.6042C35.4267 98.0732 34.5693 98.3077 33.602 98.3077C33.0451 98.3077 32.5688 98.2564 32.1731 98.1538C31.7774 98.0513 31.4183 97.9047 31.0959 97.7142V100.308C31.0959 101.1 31.1105 101.73 31.1398 102.199C31.1691 102.682 31.2424 103.042 31.3597 103.276C31.4916 103.511 31.6821 103.664 31.9313 103.738C32.1804 103.811 32.5248 103.848 32.9645 103.848L33.0085 104.111H27.6884L27.7324 103.848C28.1574 103.848 28.4945 103.811 28.7436 103.738C28.9928 103.664 29.176 103.511 29.2932 103.276C29.4104 103.042 29.4837 102.682 29.513 102.199C29.5423 101.73 29.557 101.1 29.557 100.308V91.0311C29.557 90.3276 29.5423 89.7707 29.513 89.3603C29.4837 88.95 29.4104 88.6495 29.2932 88.459C29.176 88.2538 28.9928 88.1219 28.7436 88.0633C28.4945 88.0047 28.1574 87.9754 27.7324 87.9754L27.6884 87.7335C27.6884 87.7335 27.8423 87.7116 28.15 87.6676C28.4725 87.6236 28.8902 87.5796 29.4031 87.5357C29.9161 87.4917 30.4803 87.4697 31.0959 87.4697V90.3496C31.2424 89.8953 31.4476 89.4483 31.7114 89.0086C31.9899 88.5689 32.3563 88.2025 32.8106 87.9094C33.2649 87.6163 33.8219 87.4697 34.4814 87.4697ZM33.3162 97.6702C34.0197 97.6702 34.5986 97.531 35.0529 97.2525C35.5219 96.974 35.8883 96.6077 36.1521 96.1533C36.4306 95.6843 36.6211 95.1714 36.7237 94.6145C36.841 94.0575 36.8996 93.4933 36.8996 92.9217C36.8996 92.4674 36.8629 91.9691 36.7897 91.4268C36.7164 90.8699 36.5772 90.3496 36.372 89.866C36.1814 89.3677 35.903 88.9573 35.5366 88.6349C35.1848 88.3124 34.7159 88.1512 34.1296 88.1512C33.6606 88.1512 33.2503 88.2831 32.8985 88.5469C32.5615 88.7961 32.2757 89.1258 32.0412 89.5362C31.8067 89.9466 31.6162 90.3789 31.4696 90.8332C31.3377 91.2876 31.2424 91.7126 31.1838 92.1083C31.1252 92.504 31.0959 92.8264 31.0959 93.0756V96.5051C31.3011 96.8715 31.6088 97.1572 32.0192 97.3624C32.4296 97.5676 32.8619 97.6702 33.3162 97.6702ZM43.0236 81.9078V94.2627C43.0236 95.0688 43.0383 95.7136 43.0676 96.1973C43.0969 96.6663 43.1702 97.018 43.2874 97.2525C43.4193 97.487 43.6098 97.6409 43.859 97.7142C44.1081 97.7874 44.4526 97.8241 44.8922 97.8241L44.9362 98.0879H39.5502L39.5941 97.8241C40.0485 97.8241 40.4002 97.7874 40.6494 97.7142C40.9132 97.6409 41.1037 97.487 41.2209 97.2525C41.3382 97.018 41.4115 96.6663 41.4408 96.1973C41.4701 95.7136 41.4847 95.0688 41.4847 94.2627V85.8649C41.4847 85.0735 41.4701 84.4433 41.4408 83.9743C41.4115 83.5053 41.3382 83.1609 41.2209 82.9411C41.1037 82.7212 40.9132 82.582 40.6494 82.5234C40.4002 82.4501 40.0485 82.4135 39.5941 82.4135L39.5502 82.1716C39.5502 82.1716 39.7114 82.1497 40.0338 82.1057C40.3562 82.0617 40.7813 82.0178 41.3089 81.9738C41.8511 81.9298 42.4227 81.9078 43.0236 81.9078ZM54.2091 90.9871V93.2075C54.2091 94.2481 54.2237 95.0541 54.253 95.6257C54.297 96.1973 54.3849 96.6003 54.5168 96.8348C54.6487 97.0547 54.8466 97.1646 55.1104 97.1646C55.3009 97.1646 55.4768 97.1353 55.638 97.0766C55.7992 97.0034 55.9531 96.9301 56.0997 96.8568L56.2096 97.0766C56.2096 97.0766 56.063 97.1719 55.7699 97.3624C55.4768 97.5383 55.0737 97.7215 54.5608 97.912C54.0625 98.1025 53.5056 98.1978 52.89 98.1978C52.8314 97.9193 52.7801 97.509 52.7361 96.9667C52.6922 96.4245 52.6702 95.8529 52.6702 95.252C52.509 95.7356 52.2891 96.2119 52.0107 96.6809C51.7469 97.1499 51.3878 97.5383 50.9335 97.8461C50.4791 98.1538 49.8929 98.3077 49.1748 98.3077C48.3101 98.3077 47.6066 98.0659 47.0643 97.5823C46.5221 97.0986 46.2509 96.4245 46.2509 95.5598C46.2509 94.8563 46.4634 94.2407 46.8885 93.7131C47.3135 93.1709 47.995 92.7532 48.9329 92.46C49.8709 92.1523 51.1167 91.9984 52.6702 91.9984V91.207C52.6702 90.5768 52.6116 90.0198 52.4943 89.5362C52.3917 89.0379 52.1792 88.6495 51.8568 88.3711C51.549 88.0926 51.0947 87.9534 50.4938 87.9534C50.0834 87.9534 49.761 88.034 49.5265 88.1952C49.292 88.3418 49.1015 88.525 48.9549 88.7448C48.823 88.9646 48.7058 89.1918 48.6032 89.4263C48.5006 89.6461 48.376 89.8366 48.2295 89.9979C48.0976 90.1444 47.907 90.2177 47.6579 90.2177C47.1596 90.2177 46.9104 89.9686 46.9104 89.4703C46.9104 89.0452 47.0863 88.6862 47.4381 88.393C47.7898 88.0999 48.2441 87.8728 48.801 87.7116C49.3726 87.5503 49.9662 87.4697 50.5817 87.4697C51.6223 87.4697 52.487 87.7555 53.1758 88.3271C53.8646 88.884 54.2091 89.7707 54.2091 90.9871ZM49.5265 97.6262C50.0981 97.6262 50.5817 97.4577 50.9774 97.1206C51.3731 96.7835 51.6882 96.3512 51.9227 95.8236C52.1719 95.296 52.3551 94.739 52.4723 94.1528C52.5896 93.5519 52.6555 93.0023 52.6702 92.504C51.5124 92.5187 50.5817 92.6726 49.8783 92.9657C49.1894 93.2588 48.6911 93.6398 48.3834 94.1088C48.0756 94.5778 47.9217 95.0908 47.9217 95.6477C47.9217 96.19 48.0536 96.6589 48.3174 97.0547C48.5812 97.4357 48.9842 97.6262 49.5265 97.6262ZM60.7453 87.4697V91.4048C60.8332 90.7893 61.0091 90.1811 61.2729 89.5802C61.5513 88.9646 61.9324 88.459 62.416 88.0633C62.9143 87.6676 63.5226 87.4697 64.2407 87.4697C65.3692 87.4697 66.2119 87.7775 66.7688 88.393C67.3258 88.9939 67.6042 89.8586 67.6042 90.9871V94.4606C67.6042 95.4572 67.6409 96.1973 67.7141 96.6809C67.7874 97.1646 67.956 97.4797 68.2198 97.6262C68.4836 97.7581 68.9013 97.8241 69.4728 97.8241L69.5168 98.0879H64.1747L64.2187 97.8241C64.673 97.8241 65.0248 97.7874 65.2739 97.7142C65.5231 97.6409 65.699 97.487 65.8015 97.2525C65.9188 97.018 65.9921 96.6663 66.0214 96.1973C66.0507 95.7136 66.0653 95.0688 66.0653 94.2627V91.207C66.0653 90.2543 65.9188 89.5069 65.6257 88.9646C65.3326 88.4224 64.783 88.1512 63.9769 88.1512C63.4639 88.1512 63.0169 88.3051 62.6359 88.6129C62.2695 88.9207 61.9617 89.3237 61.7126 89.822C61.4781 90.3056 61.2875 90.8332 61.141 91.4048C60.9944 91.9764 60.8918 92.5333 60.8332 93.0756C60.7746 93.6032 60.7453 94.0649 60.7453 94.4606C60.7453 95.2227 60.7599 95.8309 60.7892 96.2852C60.8186 96.7249 60.8918 97.0547 61.0091 97.2745C61.1263 97.4943 61.3095 97.6409 61.5587 97.7142C61.8078 97.7874 62.1522 97.8241 62.5919 97.8241L62.6359 98.0879H57.2718L57.3158 97.8241C57.7701 97.8241 58.1219 97.7874 58.371 97.7142C58.6348 97.6409 58.8254 97.4943 58.9426 97.2745C59.0599 97.04 59.1331 96.6956 59.1624 96.2413C59.1918 95.7869 59.2064 95.1787 59.2064 94.4166V92.6579C59.2064 91.588 59.1844 90.738 59.1405 90.1078C59.1111 89.4776 59.0232 89.0086 58.8767 88.7008C58.7301 88.393 58.5103 88.1952 58.2171 88.1073C57.9387 88.0047 57.543 87.9534 57.03 87.9534L56.9861 87.7116C56.9861 87.7116 57.1692 87.6896 57.5356 87.6456C57.9167 87.6016 58.393 87.565 58.9646 87.5357C59.5362 87.4917 60.1297 87.4697 60.7453 87.4697ZM73.6032 84.9856V87.6896H76.3072V88.1732H73.6032V96.549C73.6032 96.8715 73.6765 97.1206 73.823 97.2965C73.9696 97.4723 74.1601 97.5603 74.3946 97.5603C74.6877 97.5603 74.9809 97.5236 75.274 97.4504C75.5671 97.3624 75.8968 97.2452 76.2632 97.0986L76.3072 97.3404C75.8968 97.6042 75.4645 97.8314 75.0102 98.0219C74.5558 98.2125 74.0795 98.3077 73.5812 98.3077C73.0976 98.3077 72.7239 98.1905 72.46 97.956C72.1962 97.7215 72.0643 97.2818 72.0643 96.637V88.1732H70.7453V87.6896C71.3315 87.6896 71.7786 87.5723 72.0863 87.3378C72.3941 87.0887 72.6213 86.7589 72.7678 86.3486C72.9144 85.9382 73.0316 85.4985 73.1196 85.0295L73.6032 84.9856ZM92.6265 97.1206C92.6265 96.7835 92.524 96.3145 92.3188 95.7136C92.1282 95.1128 91.8425 94.2994 91.4614 93.2734H84.7564C84.4486 94.1821 84.2141 94.9296 84.0529 95.5158C83.8917 96.102 83.8111 96.5637 83.8111 96.9008C83.8111 97.3258 83.9503 97.5896 84.2287 97.6922C84.5072 97.7801 84.9249 97.8241 85.4818 97.8241L85.5258 98.0879H80.5794L80.6234 97.8241C81.0045 97.8241 81.3342 97.7801 81.6127 97.6922C81.9058 97.6042 82.1769 97.4137 82.4261 97.1206C82.6752 96.8275 82.939 96.3732 83.2175 95.7576C83.496 95.1421 83.8184 94.2994 84.1848 93.2295L86.1413 87.5796C86.4345 86.7443 86.6543 86.0921 86.8008 85.6231C86.9474 85.1395 87.0427 84.7657 87.0866 84.5019C87.1453 84.2381 87.1746 84.0109 87.1746 83.8204C87.1746 83.4833 87.072 83.2562 86.8668 83.1389C86.6616 83.007 86.2659 82.9411 85.6797 82.9411L85.6357 82.6993H89.263L93.1542 93.2295C93.5499 94.2994 93.8723 95.1421 94.1214 95.7576C94.3852 96.3732 94.6271 96.8275 94.8469 97.1206C95.0667 97.4137 95.3012 97.6042 95.5504 97.6922C95.7995 97.7801 96.122 97.8241 96.5177 97.8241L96.5616 98.0879H91.0657L91.1097 97.8241C91.6226 97.8241 92.0037 97.7874 92.2528 97.7142C92.502 97.6262 92.6265 97.4284 92.6265 97.1206ZM88.0319 83.8864L84.9322 92.7458H91.2855L88.0319 83.8864ZM102.987 87.3598C103.324 87.3598 103.639 87.4404 103.932 87.6016C104.225 87.7482 104.372 87.968 104.372 88.2611C104.372 88.5543 104.277 88.7814 104.086 88.9426C103.896 89.0892 103.698 89.1625 103.493 89.1625C103.273 89.1625 103.082 89.1185 102.921 89.0306C102.774 88.928 102.606 88.8327 102.415 88.7448C102.239 88.6422 101.983 88.5909 101.646 88.5909C101.25 88.5909 100.906 88.8474 100.613 89.3603C100.32 89.8586 100.092 90.5108 99.9312 91.3169C99.7846 92.123 99.7113 92.9657 99.7113 93.845C99.7113 94.7683 99.726 95.5011 99.7553 96.0434C99.7993 96.5857 99.8799 96.9814 99.9971 97.2305C100.114 97.4797 100.298 97.6409 100.547 97.7142C100.796 97.7874 101.14 97.8241 101.58 97.8241L101.624 98.0879H96.2819L96.3258 97.8241C96.7509 97.8241 97.0879 97.7874 97.3371 97.7142C97.5862 97.6409 97.7694 97.4797 97.8867 97.2305C98.0039 96.9814 98.0772 96.5857 98.1065 96.0434C98.1505 95.5011 98.1725 94.7683 98.1725 93.845V92.57C98.1725 91.5001 98.1505 90.6574 98.1065 90.0418C98.0772 89.4116 97.9893 88.95 97.8427 88.6569C97.7108 88.3637 97.4983 88.1805 97.2052 88.1073C96.9267 88.0193 96.5383 87.9754 96.04 87.9754L95.9961 87.7335C95.9961 87.7335 96.1793 87.7116 96.5457 87.6676C96.9121 87.6236 97.3737 87.5796 97.9306 87.5357C98.5022 87.4917 99.0958 87.4697 99.7113 87.4697V90.7013C99.8725 89.6608 100.232 88.8474 100.789 88.2611C101.36 87.6603 102.093 87.3598 102.987 87.3598ZM107.804 84.9856V87.6896H110.508V88.1732H107.804V96.549C107.804 96.8715 107.878 97.1206 108.024 97.2965C108.171 97.4723 108.361 97.5603 108.596 97.5603C108.889 97.5603 109.182 97.5236 109.475 97.4504C109.768 97.3624 110.098 97.2452 110.464 97.0986L110.508 97.3404C110.098 97.6042 109.666 97.8314 109.211 98.0219C108.757 98.2125 108.281 98.3077 107.782 98.3077C107.299 98.3077 106.925 98.1905 106.661 97.956C106.397 97.7215 106.265 97.2818 106.265 96.637V88.1732H104.946V87.6896C105.533 87.6896 105.98 87.5723 106.287 87.3378C106.595 87.0887 106.822 86.7589 106.969 86.3486C107.115 85.9382 107.233 85.4985 107.321 85.0295L107.804 84.9856Z" fill="url(#paint0_linear_87_649)"></path>
  <path d="M43.9004 67.5647C43.9004 67.5647 39.0383 52.8748 36.2456 50.5987C33.4529 48.3226 30.5568 42.6339 28.2807 34.8757C26.0046 27.1175 24.7648 24.4281 26.2113 19.7725C26.2113 19.7725 28.9736 10.3551 29.5996 9.22164C30.8668 6.92123 37.5918 2.85827 38.315 2.59997C39.0383 2.34167 43.6938 0.943795 46.3832 3.32322C49.0726 5.70264 55.281 15.427 55.281 15.427C55.281 15.427 55.9282 16.7975 56.9888 16.3052C58.2985 15.6974 63.4373 10.4281 66.1813 8.03952C67.6309 6.7784 69.363 5.87586 71.241 5.46561C72.961 5.09183 74.8087 5.07968 76.6441 5.41395C76.6441 5.41395 79.2818 6.06123 81.5063 11.0267L83.5758 17.855C83.5758 17.855 84.7123 5.49296 76.7474 3.6818C76.7474 3.6818 69.0986 2.23227 64.0754 8.28567L57.0648 15.348C56.8794 15.5364 56.6029 15.6063 56.3506 15.5303C56.0376 15.4361 55.7702 15.193 55.3357 14.5943C54.5881 13.5642 47.6808 2.95552 47.6808 2.95552C47.6808 2.95552 44.4231 -0.71846 39.1993 0.937717C33.9755 2.59389 29.004 5.18604 29.004 5.18604C29.004 5.18604 25.5397 7.2555 25.0717 10.6681C24.6037 14.0808 20.6745 23.8568 22.434 28.254C24.1935 32.6512 28.4327 44.1867 28.4327 44.1867C28.4327 44.1867 30.2924 48.1859 34.1913 51.3341C35.4311 52.3369 36.4765 53.5586 37.215 54.9716C39.3817 59.1136 43.6665 67.2942 43.8974 67.5647H43.9004Z" fill="url(#paint1_linear_87_649)"></path>
  <path d="M28.8496 13.9523C28.8496 13.9523 29.5485 24.8921 32.4172 23.4943C35.2859 22.0964 37.1487 19.6136 42.2722 21.0115C47.3957 22.4094 58.7216 29.7027 60.0404 29.5477C61.3593 29.3927 75.9975 17.4956 83.5764 17.8572C83.5764 17.8572 86.4207 17.6019 87.9736 21.75C89.5265 25.898 92.1642 30.1676 90.4563 34.7441C88.7485 39.3206 83.8803 47.4162 79.9814 50.4155C74.9369 54.2961 69.5065 67.5638 69.5065 67.5638C69.5065 67.5638 74.083 51.8134 77.1097 50.0296C80.1093 48.2595 84.3116 41.493 86.7235 34.697C87.4151 32.7482 87.6633 30.6581 87.4554 28.6007C87.1389 25.4692 86.1507 21.949 81.9202 21.8624C74.162 21.7074 60.9825 31.0185 59.931 30.7845C58.8796 30.5505 46.6178 24.7341 42.9712 23.8012C39.8655 23.0081 36.4528 23.1813 32.9612 25.974C29.4695 28.7667 28.099 18.6807 28.8496 13.9492V13.9523Z" fill="url(#paint2_linear_87_649)"></path>
  <path d="M47.4769 47.9609C47.4769 47.9609 43.4808 48.1129 43.3684 50.389C43.2559 52.6651 51.2755 54.9108 56.4202 55.5216C61.565 56.1324 66.2266 55.7131 66.2266 55.7131C66.2266 55.7131 68.1837 55.5733 67.503 56.3421C66.8222 57.1109 66.1172 57.5546 66.1172 57.5546C66.1172 57.5546 69.6423 56.4667 69.4448 54.6707C69.4448 54.6707 69.5572 53.443 66.0747 53.832C62.8505 54.1906 56.7029 54.142 49.4187 52.1728C49.4187 52.1728 42.7484 50.1611 47.4739 47.9609H47.4769Z" fill="url(#paint3_linear_87_649)"></path>
  <path d="M48.1852 53.8076C48.1852 53.8076 44.578 53.9444 44.4747 56.0017C44.3714 58.059 51.616 60.0859 56.2625 60.6359C60.9089 61.186 65.1177 60.8091 65.1177 60.8091C65.1177 60.8091 66.8863 60.6846 66.2694 61.3744C65.6525 62.0642 65.0204 62.4714 65.0204 62.4714C65.0204 62.4714 68.2052 61.4868 68.0259 59.8671C68.0259 59.8671 68.1292 58.7579 64.984 59.1074C62.0727 59.4295 56.5208 59.39 49.9447 57.6092C49.9447 57.6092 43.9217 55.792 48.1882 53.8076H48.1852Z" fill="url(#paint4_linear_87_649)"></path>
  <path d="M49.1486 59.6514C49.1486 59.6514 45.973 59.7729 45.8818 61.5841C45.7907 63.3952 52.1692 65.179 56.2595 65.6653C60.3498 66.1515 64.0572 65.8172 64.0572 65.8172C64.0572 65.8172 65.6131 65.7078 65.0722 66.3156C64.5313 66.9233 63.9721 67.2819 63.9721 67.2819C63.9721 67.2819 66.777 66.4159 66.619 64.9876C66.619 64.9876 66.7101 64.0121 63.9387 64.3191C61.3739 64.6047 56.4844 64.5652 50.6954 63.0002C50.6954 63.0002 45.3926 61.3987 49.1486 59.6514Z" fill="url(#paint5_linear_87_649)"></path>
  <path d="M50.6535 65.6534C50.6535 65.6534 48.0796 65.7507 48.0066 67.2184C47.9337 68.6862 53.0997 70.1327 56.4151 70.5247C59.7305 70.9167 62.7329 70.6493 62.7329 70.6493C62.7329 70.6493 63.994 70.5612 63.5534 71.0535C63.1128 71.5458 62.66 71.8345 62.66 71.8345C62.66 71.8345 64.9331 71.1325 64.8054 69.9747C64.8054 69.9747 64.8784 69.1846 62.6357 69.4338C60.5571 69.6647 56.5975 69.6343 51.9055 68.3641C51.9055 68.3641 47.6085 67.0665 50.6535 65.6504V65.6534Z" fill="url(#paint6_linear_87_649)"></path>
  <path d="M50.966 70.6125C50.966 70.6125 48.6017 70.7006 48.5349 72.0499C48.468 73.3992 53.2117 74.7241 56.2566 75.0857C59.3015 75.4473 62.0578 75.1982 62.0578 75.1982C62.0578 75.1982 63.2156 75.1161 62.8114 75.5689C62.4073 76.0217 61.9909 76.2861 61.9909 76.2861C61.9909 76.2861 64.0756 75.6418 63.9601 74.5782C63.9601 74.5782 64.027 73.8519 61.9666 74.0799C60.0582 74.2926 56.4207 74.2652 52.1147 73.0983C52.1147 73.0983 48.1672 71.9071 50.966 70.6064V70.6125Z" fill="url(#paint7_linear_87_649)"></path>
  <path d="M53.6191 76.3291C53.6191 76.3291 54.783 78.9699 56.269 80.1034C56.971 80.6382 57.9343 80.6291 58.6515 80.1155C59.3687 79.602 60.2621 78.6447 61.2132 76.6907C61.2132 76.6907 58.7396 78.9911 57.284 79.0702C56.0229 79.137 53.6191 76.3321 53.6191 76.3321V76.3291Z" fill="url(#paint8_linear_87_649)"></path>
  <defs>
    <linearGradient id="paint0_linear_87_649" x1="0" y1="91.0879" x2="111" y2="91.0879" gradientUnits="userSpaceOnUse">
      <stop stop-color="#F0D78B"></stop>
      <stop offset="0.157967" stop-color="#D6AD60"></stop>
      <stop offset="0.318223" stop-color="#C49959"></stop>
      <stop offset="0.497081" stop-color="#F5DD8D"></stop>
      <stop offset="0.671646" stop-color="#F9F0C3"></stop>
      <stop offset="0.826179" stop-color="#ECCC83"></stop>
      <stop offset="0.976419" stop-color="#BC9152"></stop>
    </linearGradient>
    <linearGradient id="paint1_linear_87_649" x1="21.9834" y1="34.0367" x2="83.6318" y2="34.0367" gradientUnits="userSpaceOnUse">
      <stop stop-color="#F0D78B"></stop>
      <stop offset="0.157967" stop-color="#D6AD60"></stop>
      <stop offset="0.318223" stop-color="#C49959"></stop>
      <stop offset="0.497081" stop-color="#F5DD8D"></stop>
      <stop offset="0.671646" stop-color="#F9F0C3"></stop>
      <stop offset="0.826179" stop-color="#ECCC83"></stop>
      <stop offset="0.976419" stop-color="#BC9152"></stop>
    </linearGradient>
    <linearGradient id="paint2_linear_87_649" x1="28.6504" y1="40.7565" x2="91.0112" y2="40.7565" gradientUnits="userSpaceOnUse">
      <stop stop-color="#F0D78B"></stop>
      <stop offset="0.157967" stop-color="#D6AD60"></stop>
      <stop offset="0.318223" stop-color="#C49959"></stop>
      <stop offset="0.497081" stop-color="#F5DD8D"></stop>
      <stop offset="0.671646" stop-color="#F9F0C3"></stop>
      <stop offset="0.826179" stop-color="#ECCC83"></stop>
      <stop offset="0.976419" stop-color="#BC9152"></stop>
    </linearGradient>
    <linearGradient id="paint3_linear_87_649" x1="43.3672" y1="52.7578" x2="69.4528" y2="52.7578" gradientUnits="userSpaceOnUse">
      <stop stop-color="#868986"></stop>
      <stop offset="0.50685" stop-color="#C0C3C0"></stop>
      <stop offset="1" stop-color="#868986"></stop>
    </linearGradient>
    <linearGradient id="paint4_linear_87_649" x1="44.4736" y1="58.1395" x2="68.0332" y2="58.1395" gradientUnits="userSpaceOnUse">
      <stop stop-color="#868986"></stop>
      <stop offset="0.50685" stop-color="#C0C3C0"></stop>
      <stop offset="1" stop-color="#868986"></stop>
    </linearGradient>
    <linearGradient id="paint5_linear_87_649" x1="45.8809" y1="63.4667" x2="66.6254" y2="63.4667" gradientUnits="userSpaceOnUse">
      <stop stop-color="#868986"></stop>
      <stop offset="0.50685" stop-color="#C0C3C0"></stop>
      <stop offset="1" stop-color="#868986"></stop>
    </linearGradient>
    <linearGradient id="paint6_linear_87_649" x1="48.0059" y1="68.7424" x2="64.8106" y2="68.7424" gradientUnits="userSpaceOnUse">
      <stop stop-color="#868986"></stop>
      <stop offset="0.50685" stop-color="#C0C3C0"></stop>
      <stop offset="1" stop-color="#868986"></stop>
    </linearGradient>
    <linearGradient id="paint7_linear_87_649" x1="48.5342" y1="73.4463" x2="63.9647" y2="73.4463" gradientUnits="userSpaceOnUse">
      <stop stop-color="#868986"></stop>
      <stop offset="0.50685" stop-color="#C0C3C0"></stop>
      <stop offset="1" stop-color="#868986"></stop>
    </linearGradient>
    <linearGradient id="paint8_linear_87_649" x1="53.6191" y1="78.4158" x2="61.2132" y2="78.4158" gradientUnits="userSpaceOnUse">
      <stop stop-color="#868986"></stop>
      <stop offset="0.50685" stop-color="#C0C3C0"></stop>
      <stop offset="1" stop-color="#868986"></stop>
    </linearGradient>
  </defs>
</svg>
